<?xml version="1.0" encoding="UTF-8"?>
<svg width="59.2854653px" height="570.055318px" viewBox="0 0 59.2854653 570.055318" version="1.1" xmlns="http://www.w3.org/2000/svg" xmlns:xlink="http://www.w3.org/1999/xlink">
    <title>Group 2</title>
    <g id="Sprite" stroke="none" stroke-width="1" fill="none" fill-rule="evenodd">
        <g id="t" fill-rule="nonzero">
            <g id="Group-2">
                <g id="zc-pb-live-error">
                    <g id="sprint" transform="translate(0.500000, 0.000000)">
                        <g id="warning-sign">
                            <g id="Group-7">
                                <g id="Group-5" transform="translate(29.419504, 39.551988)">
                                    <path d="M13.8591078,0.976742183 L0.648169003,22.4798578 C0.359063263,22.950428 0.506169277,23.566267 0.976739484,23.8553728 C1.13420586,23.9521159 1.31540129,24.0033301 1.50021173,24.0033301 L27.8659609,24.0033301 C28.4182457,24.0033301 28.8659609,23.5556148 28.8659609,23.0033301 C28.8659609,22.8191641 28.8151031,22.6385751 28.7189952,22.4814752 L15.5641848,0.978359603 C15.2759723,0.507241762 14.6604135,0.358967656 14.1892957,0.647180123 C14.0547897,0.729465883 13.9416486,0.842392593 13.8591078,0.976742183 Z" id="Path-4" fill="#FFFFFF"></path>
                                    <path d="M13.9283683,0.220662978 C13.7266094,0.34409154 13.5568977,0.513481604 13.4330865,0.715006042 L0.22214764,22.2181217 C-0.211510964,22.923977 0.0091480461,23.8477355 0.715003321,24.2813942 C0.951203006,24.4265089 1.22299613,24.5033301 1.50021173,24.5033301 L27.8659609,24.5033301 C28.6943881,24.5033301 29.3659609,23.8317572 29.3659609,23.0033301 C29.3659609,22.7270812 29.2896743,22.4561976 29.1455124,22.2205478 L15.990702,0.717432189 C15.5583833,0.0107554212 14.635045,-0.211655735 13.9283683,0.220662978 Z M15.1376677,1.23928704 L28.2924781,22.7424026 C28.3405321,22.8209526 28.3659609,22.9112471 28.3659609,23.0033301 C28.3659609,23.2794725 28.1421033,23.5033301 27.8659609,23.5033301 L1.50021173,23.5033301 C1.40780658,23.5033301 1.31720883,23.477723 1.23847555,23.4293514 C1.0031905,23.2847986 0.929637494,22.976879 1.07419036,22.7415939 L14.2851292,1.23847831 C14.3263996,1.17130347 14.3829702,1.11484016 14.4502232,1.07369727 C14.6857821,0.92959105 14.9935614,1.0037281 15.1376677,1.23928704 Z" id="Path-4" fill="#000000"></path>
                                    <path d="M14.9992498,8.09908415 C15.2753922,8.09908415 15.4992498,8.32294177 15.4992498,8.59908415 L15.4992498,15.7444517 C15.4992498,16.0205941 15.2753922,16.2444517 14.9992498,16.2444517 C14.7231075,16.2444517 14.4992498,16.0205941 14.4992498,15.7444517 L14.4992498,8.59908415 C14.4992498,8.32294177 14.7231075,8.09908415 14.9992498,8.09908415 Z" id="Path" fill="#FF0000"></path>
                                    <circle id="Oval" fill="#FF0000" cx="14.681099" cy="18.5880321" r="1"></circle>
                                </g>
                                <g id="Group-3">
                                    <polyline id="Path-2" fill="#FFFFFF" points="27.0733966 56.5931345 0.5 56.5931345 0.5 0.5 32.7782834 0.5 44.747897 12.8227977 44.747897 34.0687216"></polyline>
                                    <path d="M32.7782834,0 C32.9134123,0 33.0427877,0.0546941639 33.1369392,0.151623692 L45.1065528,12.4744214 C45.1971941,12.5677373 45.247897,12.6927065 45.247897,12.8227977 L45.247897,34.0687216 C45.247897,34.344864 45.0240394,34.5687216 44.747897,34.5687216 C44.4717546,34.5687216 44.247897,34.344864 44.247897,34.0687216 L44.247,13.025 L32.567,1 L1,1 L1,56.093 L27.0733966,56.0931345 C27.3188565,56.0931345 27.523005,56.2700097 27.5653409,56.5032589 L27.5733966,56.5931345 C27.5733966,56.8692769 27.349539,57.0931345 27.0733966,57.0931345 L0.5,57.0931345 C0.223857625,57.0931345 0,56.8692769 0,56.5931345 L0,0.5 C0,0.223857625 0.223857625,0 0.5,0 L32.7782834,0 Z" id="Path-2" fill="#000000"></path>
                                    <polygon id="Path-3" fill="#000000" points="32.2999398 0.5 32.2999398 13.2574114 44.747897 13.2574114"></polygon>
                                </g>
                            </g>
                            <g id="chart-bar-32" transform="translate(13.623949, 19.546567)" fill="#000000">
                                <path d="M10.7,0 L7.3,0 C7.02385763,0 6.8,0.223857625 6.8,0.5 L6.8,17.5 C6.8,17.7761424 7.02385763,18 7.3,18 L10.7,18 C10.9761424,18 11.2,17.7761424 11.2,17.5 L11.2,0.5 C11.2,0.223857625 10.9761424,0 10.7,0 Z M10.2,1 L10.2,16.999 L7.8,16.999 L7.8,1 L10.2,1 Z" id="Rectangle"></path>
                                <path d="M3.9,11.3333333 L0.5,11.3333333 C0.223857625,11.3333333 0,11.5571909 0,11.8333333 L0,17.5 C0,17.7761423 0.223857625,18 0.5,18 L3.9,18 C4.17614237,18 4.4,17.7761423 4.4,17.5 L4.4,11.8333333 C4.4,11.5571909 4.17614237,11.3333333 3.9,11.3333333 Z M3.4,12.3333333 L3.4,16.9993333 L1,16.9993333 L1,12.3333333 L3.4,12.3333333 Z" id="Rectangle"></path>
                                <path d="M17.5,5.66666667 L14.1,5.66666667 C13.8238576,5.66666667 13.6,5.8905243 13.6,6.16666667 L13.6,17.5 C13.6,17.7761423 13.8238576,18 14.1,18 L17.5,18 C17.7761424,18 18,17.7761423 18,17.5 L18,6.16666667 C18,5.8905243 17.7761424,5.66666667 17.5,5.66666667 Z M17,6.66666667 L17,16.9996667 L14.6,16.9996667 L14.6,6.66666667 L17,6.66666667 Z" id="Rectangle"></path>
                            </g>
                        </g>
                        <g id="warning-sign" transform="translate(0.000000, 73.055318)">
                            <g id="Group-7">
                                <g id="Group-5" transform="translate(29.419504, 39.551988)">
                                    <path d="M13.8591078,0.976742183 L0.648169003,22.4798578 C0.359063263,22.950428 0.506169277,23.566267 0.976739484,23.8553728 C1.13420586,23.9521159 1.31540129,24.0033301 1.50021173,24.0033301 L27.8659609,24.0033301 C28.4182457,24.0033301 28.8659609,23.5556148 28.8659609,23.0033301 C28.8659609,22.8191641 28.8151031,22.6385751 28.7189952,22.4814752 L15.5641848,0.978359603 C15.2759723,0.507241762 14.6604135,0.358967656 14.1892957,0.647180123 C14.0547897,0.729465883 13.9416486,0.842392593 13.8591078,0.976742183 Z" id="Path-4" fill="#FFFFFF"></path>
                                    <path d="M13.9283683,0.220662978 C13.7266094,0.34409154 13.5568977,0.513481604 13.4330865,0.715006042 L0.22214764,22.2181217 C-0.211510964,22.923977 0.0091480461,23.8477355 0.715003321,24.2813942 C0.951203006,24.4265089 1.22299613,24.5033301 1.50021173,24.5033301 L27.8659609,24.5033301 C28.6943881,24.5033301 29.3659609,23.8317572 29.3659609,23.0033301 C29.3659609,22.7270812 29.2896743,22.4561976 29.1455124,22.2205478 L15.990702,0.717432189 C15.5583833,0.0107554212 14.635045,-0.211655735 13.9283683,0.220662978 Z M15.1376677,1.23928704 L28.2924781,22.7424026 C28.3405321,22.8209526 28.3659609,22.9112471 28.3659609,23.0033301 C28.3659609,23.2794725 28.1421033,23.5033301 27.8659609,23.5033301 L1.50021173,23.5033301 C1.40780658,23.5033301 1.31720883,23.477723 1.23847555,23.4293514 C1.0031905,23.2847986 0.929637494,22.976879 1.07419036,22.7415939 L14.2851292,1.23847831 C14.3263996,1.17130347 14.3829702,1.11484016 14.4502232,1.07369727 C14.6857821,0.92959105 14.9935614,1.0037281 15.1376677,1.23928704 Z" id="Path-4" fill="#000000"></path>
                                    <path d="M14.9992498,8.09908415 C15.2753922,8.09908415 15.4992498,8.32294177 15.4992498,8.59908415 L15.4992498,15.7444517 C15.4992498,16.0205941 15.2753922,16.2444517 14.9992498,16.2444517 C14.7231075,16.2444517 14.4992498,16.0205941 14.4992498,15.7444517 L14.4992498,8.59908415 C14.4992498,8.32294177 14.7231075,8.09908415 14.9992498,8.09908415 Z" id="Path" fill="#FF0000"></path>
                                    <circle id="Oval" fill="#FF0000" cx="14.681099" cy="18.5880321" r="1"></circle>
                                </g>
                                <g id="Group-3">
                                    <polyline id="Path-2" fill="#FFFFFF" points="27.0733966 56.5931345 0.5 56.5931345 0.5 0.5 32.7782834 0.5 44.747897 12.8227977 44.747897 34.0687216"></polyline>
                                    <path d="M32.7782834,0 C32.9134123,0 33.0427877,0.054694164 33.1369392,0.151623692 L45.1065528,12.4744214 C45.1971941,12.5677373 45.247897,12.6927065 45.247897,12.8227977 L45.247897,34.0687216 C45.247897,34.344864 45.0240394,34.5687216 44.747897,34.5687216 C44.4717546,34.5687216 44.247897,34.344864 44.247897,34.0687216 L44.247,13.025 L32.567,1 L1,1 L1,56.093 L27.0733966,56.0931345 C27.3188565,56.0931345 27.523005,56.2700097 27.5653409,56.5032589 L27.5733966,56.5931345 C27.5733966,56.8692769 27.349539,57.0931345 27.0733966,57.0931345 L0.5,57.0931345 C0.223857625,57.0931345 0,56.8692769 0,56.5931345 L0,0.5 C0,0.223857625 0.223857625,0 0.5,0 L32.7782834,0 Z" id="Path-2" fill="#000000"></path>
                                    <polygon id="Path-3" fill="#000000" points="32.2999398 0.5 32.2999398 13.2574114 44.747897 13.2574114"></polygon>
                                </g>
                            </g>
                            <g id="row-table" transform="translate(13.623949, 19.546567)" fill="#000000">
                                <path d="M17.5,5.1 C17.7761424,5.1 18,5.32385763 18,5.6 C18,5.87614237 17.7761424,6.1 17.5,6.1 L0.5,6.1 C0.223857625,6.1 0,5.87614237 0,5.6 C0,5.32385763 0.223857625,5.1 0.5,5.1 L17.5,5.1 Z" id="Path"></path>
                                <path d="M17.5,11.05 C17.7761424,11.05 18,11.2738576 18,11.55 C18,11.8261424 17.7761424,12.05 17.5,12.05 L0.5,12.05 C0.223857625,12.05 0,11.8261424 0,11.55 C0,11.2738576 0.223857625,11.05 0.5,11.05 L17.5,11.05 Z" id="Path"></path>
                                <path d="M5.6,0 C5.87614237,0 6.1,0.223857625 6.1,0.5 L6.1,17.5 C6.1,17.7761424 5.87614237,18 5.6,18 C5.32385763,18 5.1,17.7761424 5.1,17.5 L5.1,0.5 C5.1,0.223857625 5.32385763,0 5.6,0 Z" id="Path"></path>
                                <path d="M15.8,0 L2.2,0 C0.98497355,0 0,0.98497355 0,2.2 L0,15.8 C0,17.0150265 0.984973543,18 2.2,18 L15.8,18 C17.0150265,18 18,17.0150265 18,15.8 L18,2.2 C18,0.984973543 17.0150265,0 15.8,0 Z M15.8,1 C16.4627417,1 17,1.53725829 17,2.2 L17,15.8 C17,16.4627417 16.4627417,17 15.8,17 L2.2,17 C1.53725829,17 1,16.4627417 1,15.8 L1,2.2 C1,1.5372583 1.5372583,1 2.2,1 L15.8,1 Z" id="Path"></path>
                            </g>
                        </g>
                    </g>
                    <g id="Group" transform="translate(6.000000, 152.500000)">
                        <path d="M24.5135376,26.4727861 C24.4931293,27.0254659 24.2176219,27.3018017 23.687007,27.3018017 C23.1563921,27.3018017 22.8808846,27.0254659 22.8604763,26.4727861 L22.4012927,17.1463613 L22.4012927,14.3138915 C22.4012927,13.8993817 22.5288424,13.553962 22.7839457,13.2776221 C23.039049,13.0012822 23.3400664,12.8631143 23.687007,12.8631143 C24.0543557,12.8631143 24.3655771,13.0070392 24.6206804,13.2948932 C24.8757837,13.5827473 25.0033335,13.92241 25.0033335,14.3138915 L25.0033335,17.1463613 L24.5135376,26.4727861 Z M22.2176192,31.1705409 C22.2176192,30.7099744 22.3655769,30.3184988 22.6614968,29.9961022 C22.9574166,29.6737057 23.3094539,29.5125098 23.7176192,29.5125098 C24.1257845,29.5125098 24.4778218,29.6737057 24.7737416,29.9961022 C25.0696615,30.3184988 25.2176192,30.7099744 25.2176192,31.1705409 C25.2176192,31.6311074 25.0696615,32.02834 24.7737416,32.3622507 C24.4778218,32.6961615 24.1257845,32.8631143 23.7176192,32.8631143 C23.3094539,32.8631143 22.9574166,32.6961615 22.6614968,32.3622507 C22.3655769,32.02834 22.2176192,31.6311074 22.2176192,31.1705409 Z" id="!" fill="#FF0002"></path>
                        <path d="M20.8595137,1.33555223 L0.391894455,35.448251 C0.13545904,35.8756434 0,36.3646935 0,36.8631143 C0,38.3818974 1.23121694,39.6131143 2.75,39.6131143 L43.6852384,39.6131143 C44.1836592,39.6131143 44.6727092,39.4776553 45.1001016,39.2212201 C46.4024476,38.4398124 46.8247514,36.7505967 46.043344,35.448251 L25.5757248,1.33555228 C25.3434878,0.948490789 25.0195439,0.624546888 24.6324826,0.392310063 C23.3301369,-0.38909738 21.6409212,0.0332065372 20.8595137,1.33555223 Z M23.8607389,1.67854944 C24.0366759,1.78411165 24.1839232,1.93135893 24.2894855,2.10729603 L44.7571046,36.2199947 C45.1122898,36.81197 44.9203335,37.5797953 44.3283582,37.9349806 C44.1340889,38.051542 43.9117933,38.1131143 43.6852384,38.1131143 L2.75,38.1131143 C2.05964406,38.1131143 1.5,37.5534703 1.5,36.8631143 C1.5,36.6365594 1.56157229,36.4142639 1.67813384,36.2199947 L22.145753,2.10729591 C22.5009383,1.51532058 23.2687636,1.32336425 23.8607389,1.67854944 Z" id="Triangle" fill="#000000"></path>
                    </g>
                    <g id="zc-pb-zmlerror" transform="translate(1.000000, 207.500000)">
                        <g id="docx">
                            <polyline id="Rectangle-9" stroke="#000000" stroke-width="1.5" fill="#FFFFFF" stroke-linecap="round" points="26.0999993 55.7999985 0 55.7999985 0 0 32.3999991 0 38.699999 6.50999983 44.0999988 12.1499997 44.0999988 33.1790605"></polyline>
                            <polygon id="Rectangle-10" fill="#000000" points="44.0999988 12.5999997 31.4999992 12.5999997 31.4999992 0"></polygon>
                            <path d="M16.9595996,32.7999995 L9.93239974,32.7999995 L9.93239974,31.8063995 L15.3323996,24.2607997 L9.93239974,24.2607997 L9.93239974,23.1951997 L16.8587996,23.1951997 L16.8587996,24.1887997 L11.4587997,31.7343995 L16.9595996,31.7343995 L16.9595996,32.7999995 Z M28.1915993,32.7999995 L26.9963993,32.7999995 L26.9963993,24.8943997 L23.7275994,32.7999995 L23.2379994,32.7999995 L19.9835995,24.8943997 L19.9835995,32.7999995 L18.7883995,32.7999995 L18.7883995,23.1951997 L20.5019995,23.1951997 L23.4827994,30.4239995 L26.4779993,23.1951997 L28.1915993,23.1951997 L28.1915993,32.7999995 Z M36.097199,32.7999995 L30.4379992,32.7999995 L30.4379992,23.1951997 L31.6331992,23.1951997 L31.6331992,31.7343995 L36.097199,31.7343995 L36.097199,32.7999995 Z" id="ZML" fill="#000000"></path>
                        </g>
                        <g id="invalid_link" transform="translate(28.879049, 38.967663)">
                            <path d="M15.3979813,0.60627168 L28.4589305,22.1184233 C28.8200763,22.7132517 28.6306391,23.4882221 28.0358107,23.8493679 C27.8386904,23.9690481 27.6125056,24.0323356 27.3818982,24.0323356 L1.25999994,24.0323356 C0.564121191,24.0323356 4.4408921e-16,23.4682144 4.4408921e-16,22.7723357 C4.4408921e-16,22.5417284 0.063287561,22.3155435 0.182967721,22.1184233 L13.2439169,0.60627168 C13.6050627,0.01144321 14.380033,-0.177993974 14.9748615,0.18315188 C15.1478315,0.28816937 15.2929638,0.43330171 15.3979813,0.60627168 Z" id="Triangle" stroke="#000000" stroke-width="1.5" fill="#FFFFFF"></path>
                            <path d="M15.2485001,15.7939939 C15.2362551,16.1173116 15.0709507,16.278968 14.7525817,16.278968 C14.4342128,16.278968 14.2689083,16.1173116 14.2566634,15.7939939 L13.9811532,10.3380355 L13.9811532,8.68104066 C13.9811532,8.43855241 14.057683,8.2364819 14.210745,8.07482306 C14.363807,7.91316423 14.5444174,7.83233602 14.7525817,7.83233602 C14.972991,7.83233602 15.1597238,7.91653207 15.3127858,8.08492669 C15.4658478,8.25332131 15.5423776,8.45202398 15.5423776,8.68104066 L15.5423776,10.3380355 L15.2485001,15.7939939 Z M13.8709491,18.5421803 C13.8709491,18.2727489 13.9597237,18.0437357 14.1372756,17.8551337 C14.3148275,17.6665317 14.5260499,17.5722322 14.7709491,17.5722322 C15.0158483,17.5722322 15.2270706,17.6665317 15.4046225,17.8551337 C15.5821744,18.0437357 15.6709491,18.2727489 15.6709491,18.5421803 C15.6709491,18.8116117 15.5821744,19.0439928 15.4046225,19.2393306 C15.2270706,19.4346683 15.0158483,19.5323358 14.7709491,19.5323358 C14.5260499,19.5323358 14.3148275,19.4346683 14.1372756,19.2393306 C13.9597237,19.0439928 13.8709491,18.8116117 13.8709491,18.5421803 Z" id="!" fill="#FF0002"></path>
                        </g>
                    </g>
                    <g id="zc-pb-viewererror" transform="translate(0.000000, 287.500000)">
                        <path d="M43.4746852,39.7031209 C44.1614782,39.3681736 45.003318,39.6043123 45.4102062,40.2694199 L45.4102062,40.2694199 L58.5650166,61.7725355 C58.7091784,62.0081853 58.7854651,62.2790688 58.7854651,62.5553177 C58.7854651,63.3837449 58.1138923,64.0553177 57.2854651,64.0553177 L57.2854651,64.0553177 L30.9197159,64.0553177 C30.6425003,64.0553177 30.3707071,63.9784965 30.1345076,63.8333818 C29.4286523,63.3997232 29.2079932,62.4759647 29.6416518,61.7701094 L29.6416518,61.7701094 L42.8525906,40.2669938 C42.9764018,40.0654694 43.1461136,39.8960793 43.3478725,39.7726507 L43.3478725,39.7726507 L43.4746852,39.7031209 Z M44.5571719,40.7912747 C44.4130656,40.5557158 44.1052862,40.4815787 43.8697273,40.625685 C43.8024743,40.6668279 43.7459038,40.7232912 43.7046334,40.790466 L43.7046334,40.790466 L30.4936946,62.2935816 C30.3491417,62.5288667 30.4226947,62.8367862 30.6579798,62.9813391 C30.736713,63.0297107 30.8273107,63.0553177 30.9197159,63.0553177 L30.9197159,63.0553177 L57.2854651,63.0553177 C57.5616075,63.0553177 57.7854651,62.8314601 57.7854651,62.5553177 C57.7854651,62.4632348 57.7600362,62.3729403 57.7119823,62.2943903 L57.7119823,62.2943903 L44.5571719,40.7912747 Z M32.7782834,0 C32.8863866,0 32.9908074,0.0350042649 33.0764572,0.0986338895 L33.1369392,0.151623693 L45.1065528,12.4744214 C45.1745338,12.5444084 45.2200494,12.6322003 45.2385584,12.7266042 L45.247897,12.8227977 L45.247897,34.0687216 C45.247897,34.344864 45.0240394,34.5687216 44.747897,34.5687216 C44.5024371,34.5687216 44.2982887,34.3918465 44.2559527,34.1585973 L44.247897,34.0687216 L44.247,13.257 L32.2999398,13.2574114 L32.299,1 L1,1 L1,56.093 L27.0733966,56.0931345 C27.3188565,56.0931345 27.523005,56.2700097 27.5653409,56.5032589 L27.5733966,56.5931345 C27.5733966,56.8385944 27.3965214,57.0427429 27.1632722,57.0850789 L27.0733966,57.0931345 L0.5,57.0931345 C0.254540111,57.0931345 0.0503916296,56.9162594 0.00805566941,56.6830102 L0,56.5931345 L0,0.5 C0,0.254540111 0.176875161,0.0503916296 0.410124368,0.00805566941 L0.5,0 L32.7782834,0 Z M20.7343269,33.2765512 C20.9482586,33.3968998 21.0394635,33.6511499 20.9619998,33.8751965 L20.9249549,33.9574778 L18.2564913,38.7009387 C18.1210991,38.9416118 17.8162379,39.0269589 17.5755648,38.8915667 C17.3616331,38.7712181 17.2704282,38.5169681 17.3478918,38.2929214 L17.3849367,38.2106402 L20.0534003,33.4671793 C20.1887925,33.2265061 20.4936537,33.141159 20.7343269,33.2765512 Z M29.1989227,22.3950066 L29.2296446,22.4746228 L31.0239196,28.6216956 C31.097087,28.8723627 30.9650399,29.1315259 30.7311586,29.2255318 L30.6495684,29.250512 L25.2094884,30.4262435 C25.0925856,31.0228561 24.7743255,31.5473282 24.3283788,31.9259891 L27.8629745,38.2106654 C27.9983528,38.4513464 27.912988,38.7562027 27.672307,38.8915809 C27.4583684,39.0119171 27.1937233,38.9578391 27.0424741,38.7752982 L26.9913915,38.7009134 L23.4567399,32.4171544 C23.1949854,32.5042917 22.9149773,32.5514768 22.6239485,32.5514768 C21.7396688,32.5514768 20.9571347,32.1158523 20.4792417,31.4474991 L16.0059836,32.4132018 C15.7780947,32.4623919 15.5508488,32.3476256 15.4515303,32.1446917 L15.420531,32.0646067 L14.2239919,27.966914 C14.1586301,27.7430745 14.2569218,27.5081648 14.4523087,27.3946273 L14.5300002,27.3579987 L28.5757252,22.1459556 C28.8205688,22.0550998 29.0885104,22.1683786 29.1989227,22.3950066 Z M22.6239485,28.281935 C21.7210895,28.281935 20.9891776,29.0138468 20.9891776,29.9167059 C20.9891776,30.8195649 21.7210895,31.5514768 22.6239485,31.5514768 C22.9090619,31.5514768 23.1771279,31.4784883 23.410481,31.350177 L23.4248622,31.3402998 C23.9257209,31.0569142 24.2587194,30.525698 24.2587194,29.9167059 C24.2587194,29.0138468 23.5268075,28.281935 22.6239485,28.281935 Z M28.4189485,23.269722 L15.3139485,28.132722 L16.2489485,31.336722 L20.0575647,30.5157001 C20.0128289,30.3232706 19.9891776,30.1227502 19.9891776,29.9167059 C19.9891776,28.4615621 21.1688047,27.281935 22.6239485,27.281935 C23.9033486,27.281935 24.9697637,28.1938317 25.2086926,29.4031238 L29.9129485,28.385722 L28.4189485,23.269722 Z" id="Combined-Shape" fill="#000000"></path>
                        <path d="M44.418754,57.3251127 C44.8688148,57.3251127 45.2336611,57.689959 45.2336611,58.1400197 C45.2336611,58.5900804 44.8688148,58.9549267 44.418754,58.9549267 C43.9686933,58.9549267 43.603847,58.5900804 43.603847,58.1400197 C43.603847,57.689959 43.9686933,57.3251127 44.418754,57.3251127 Z M44.418754,47.6510718 C44.6642139,47.6510718 44.8683624,47.827947 44.9106984,48.0611962 L44.918754,48.1510718 L44.918754,55.2964394 C44.918754,55.5725818 44.6948964,55.7964394 44.418754,55.7964394 C44.1732942,55.7964394 43.9691457,55.6195642 43.9268097,55.386315 L43.918754,55.2964394 L43.918754,48.1510718 C43.918754,47.8749295 44.1426117,47.6510718 44.418754,47.6510718 Z" id="Combined-Shape" fill="#FF0000"></path>
                    </g>
                </g>
                <g id="sprint" transform="translate(0.500000, 360.000000)">
                    <g id="Group-7">
                        <g id="Group-5" transform="translate(29.419504, 39.551988)">
                            <path d="M13.8591078,0.976742183 L0.648169003,22.4798578 C0.359063263,22.950428 0.506169277,23.566267 0.976739484,23.8553728 C1.13420586,23.9521159 1.31540129,24.0033301 1.50021173,24.0033301 L27.8659609,24.0033301 C28.4182457,24.0033301 28.8659609,23.5556148 28.8659609,23.0033301 C28.8659609,22.8191641 28.8151031,22.6385751 28.7189952,22.4814752 L15.5641848,0.978359603 C15.2759723,0.507241762 14.6604135,0.358967656 14.1892957,0.647180123 C14.0547897,0.729465883 13.9416486,0.842392593 13.8591078,0.976742183 Z" id="Path-4" fill="#FFFFFF"></path>
                            <path d="M13.9283683,0.220662978 C13.7266094,0.34409154 13.5568977,0.513481604 13.4330865,0.715006042 L0.22214764,22.2181217 C-0.211510964,22.923977 0.0091480461,23.8477355 0.715003321,24.2813942 C0.951203006,24.4265089 1.22299613,24.5033301 1.50021173,24.5033301 L27.8659609,24.5033301 C28.6943881,24.5033301 29.3659609,23.8317572 29.3659609,23.0033301 C29.3659609,22.7270812 29.2896743,22.4561976 29.1455124,22.2205478 L15.990702,0.717432189 C15.5583833,0.0107554212 14.635045,-0.211655735 13.9283683,0.220662978 Z M15.1376677,1.23928704 L28.2924781,22.7424026 C28.3405321,22.8209526 28.3659609,22.9112471 28.3659609,23.0033301 C28.3659609,23.2794725 28.1421033,23.5033301 27.8659609,23.5033301 L1.50021173,23.5033301 C1.40780658,23.5033301 1.31720883,23.477723 1.23847555,23.4293514 C1.0031905,23.2847986 0.929637494,22.976879 1.07419036,22.7415939 L14.2851292,1.23847831 C14.3263996,1.17130347 14.3829702,1.11484016 14.4502232,1.07369727 C14.6857821,0.92959105 14.9935614,1.0037281 15.1376677,1.23928704 Z" id="Path-4" fill="#000000"></path>
                            <path d="M14.9992498,8.09908415 C15.2753922,8.09908415 15.4992498,8.32294177 15.4992498,8.59908415 L15.4992498,15.7444517 C15.4992498,16.0205941 15.2753922,16.2444517 14.9992498,16.2444517 C14.7231075,16.2444517 14.4992498,16.0205941 14.4992498,15.7444517 L14.4992498,8.59908415 C14.4992498,8.32294177 14.7231075,8.09908415 14.9992498,8.09908415 Z" id="Path" fill="#FF0000"></path>
                            <circle id="Oval" fill="#FF0000" cx="14.681099" cy="18.5880321" r="1"></circle>
                        </g>
                        <g id="Group-3">
                            <polyline id="Path-2" fill="#FFFFFF" points="27.0733966 56.5931345 0.5 56.5931345 0.5 0.5 32.7782834 0.5 44.747897 12.8227977 44.747897 34.0687216"></polyline>
                            <path d="M32.7782834,0 C32.9134123,0 33.0427877,0.0546941639 33.1369392,0.151623692 L45.1065528,12.4744214 C45.1971941,12.5677373 45.247897,12.6927065 45.247897,12.8227977 L45.247897,34.0687216 C45.247897,34.344864 45.0240394,34.5687216 44.747897,34.5687216 C44.4717546,34.5687216 44.247897,34.344864 44.247897,34.0687216 L44.247,13.025 L32.567,1 L1,1 L1,56.093 L27.0733966,56.0931345 C27.3188565,56.0931345 27.523005,56.2700097 27.5653409,56.5032589 L27.5733966,56.5931345 C27.5733966,56.8692769 27.349539,57.0931345 27.0733966,57.0931345 L0.5,57.0931345 C0.223857625,57.0931345 0,56.8692769 0,56.5931345 L0,0.5 C0,0.223857625 0.223857625,0 0.5,0 L32.7782834,0 Z" id="Path-2" fill="#000000"></path>
                            <polygon id="Path-3" fill="#000000" points="32.2999398 0.5 32.2999398 13.2574114 44.747897 13.2574114"></polygon>
                        </g>
                    </g>
                    <g id="Group-7" transform="translate(0.000000, 73.055318)">
                        <g id="Group-5" transform="translate(29.419504, 39.551988)">
                            <path d="M13.8591078,0.976742183 L0.648169003,22.4798578 C0.359063263,22.950428 0.506169277,23.566267 0.976739484,23.8553728 C1.13420586,23.9521159 1.31540129,24.0033301 1.50021173,24.0033301 L27.8659609,24.0033301 C28.4182457,24.0033301 28.8659609,23.5556148 28.8659609,23.0033301 C28.8659609,22.8191641 28.8151031,22.6385751 28.7189952,22.4814752 L15.5641848,0.978359603 C15.2759723,0.507241762 14.6604135,0.358967656 14.1892957,0.647180123 C14.0547897,0.729465883 13.9416486,0.842392593 13.8591078,0.976742183 Z" id="Path-4" fill="#FFFFFF"></path>
                            <path d="M13.9283683,0.220662978 C13.7266094,0.34409154 13.5568977,0.513481604 13.4330865,0.715006042 L0.22214764,22.2181217 C-0.211510964,22.923977 0.0091480461,23.8477355 0.715003321,24.2813942 C0.951203006,24.4265089 1.22299613,24.5033301 1.50021173,24.5033301 L27.8659609,24.5033301 C28.6943881,24.5033301 29.3659609,23.8317572 29.3659609,23.0033301 C29.3659609,22.7270812 29.2896743,22.4561976 29.1455124,22.2205478 L15.990702,0.717432189 C15.5583833,0.0107554212 14.635045,-0.211655735 13.9283683,0.220662978 Z M15.1376677,1.23928704 L28.2924781,22.7424026 C28.3405321,22.8209526 28.3659609,22.9112471 28.3659609,23.0033301 C28.3659609,23.2794725 28.1421033,23.5033301 27.8659609,23.5033301 L1.50021173,23.5033301 C1.40780658,23.5033301 1.31720883,23.477723 1.23847555,23.4293514 C1.0031905,23.2847986 0.929637494,22.976879 1.07419036,22.7415939 L14.2851292,1.23847831 C14.3263996,1.17130347 14.3829702,1.11484016 14.4502232,1.07369727 C14.6857821,0.92959105 14.9935614,1.0037281 15.1376677,1.23928704 Z" id="Path-4" fill="#000000"></path>
                            <path d="M14.9992498,8.09908415 C15.2753922,8.09908415 15.4992498,8.32294177 15.4992498,8.59908415 L15.4992498,15.7444517 C15.4992498,16.0205941 15.2753922,16.2444517 14.9992498,16.2444517 C14.7231075,16.2444517 14.4992498,16.0205941 14.4992498,15.7444517 L14.4992498,8.59908415 C14.4992498,8.32294177 14.7231075,8.09908415 14.9992498,8.09908415 Z" id="Path" fill="#FF0000"></path>
                            <circle id="Oval" fill="#FF0000" cx="14.681099" cy="18.5880321" r="1"></circle>
                        </g>
                        <g id="Group-3">
                            <polyline id="Path-2" fill="#FFFFFF" points="27.5733966 57.0931345 1 57.0931345 1 1 33.2782834 1 45.247897 13.3227977 45.247897 34.5687216"></polyline>
                            <path d="M32.7782834,0 C32.9134123,0 33.0427877,0.054694164 33.1369392,0.151623692 L45.1065528,12.4744214 C45.1971941,12.5677373 45.247897,12.6927065 45.247897,12.8227977 L45.247897,34.0687216 C45.247897,34.344864 45.0240394,34.5687216 44.747897,34.5687216 C44.4717546,34.5687216 44.247897,34.344864 44.247897,34.0687216 L44.247,13.025 L32.567,1 L1,1 L1,56.093 L27.0733966,56.0931345 C27.3188565,56.0931345 27.523005,56.2700097 27.5653409,56.5032589 L27.5733966,56.5931345 C27.5733966,56.8692769 27.349539,57.0931345 27.0733966,57.0931345 L0.5,57.0931345 C0.223857625,57.0931345 0,56.8692769 0,56.5931345 L0,0.5 C0,0.223857625 0.223857625,0 0.5,0 L32.7782834,0 Z" id="Path-2" fill="#000000"></path>
                            <polygon id="Path-3" fill="#000000" points="32.2999398 0.5 32.2999398 13.2574114 44.747897 13.2574114"></polygon>
                        </g>
                    </g>
                </g>
                <g id="sprint" transform="translate(0.500000, 506.000000)">
                    <g id="Group-7" transform="translate(0.000000, -0.000000)">
                        <g id="Group-5" transform="translate(29.419504, 39.551988)">
                            <path d="M13.8591078,0.976742183 L0.648169003,22.4798578 C0.359063263,22.950428 0.506169277,23.566267 0.976739484,23.8553728 C1.13420586,23.9521159 1.31540129,24.0033301 1.50021173,24.0033301 L27.8659609,24.0033301 C28.4182457,24.0033301 28.8659609,23.5556148 28.8659609,23.0033301 C28.8659609,22.8191641 28.8151031,22.6385751 28.7189952,22.4814752 L15.5641848,0.978359603 C15.2759723,0.507241762 14.6604135,0.358967656 14.1892957,0.647180123 C14.0547897,0.729465883 13.9416486,0.842392593 13.8591078,0.976742183 Z" id="Path-4" fill="#FFFFFF"></path>
                            <path d="M13.9283683,0.220662978 C13.7266094,0.34409154 13.5568977,0.513481604 13.4330865,0.715006042 L0.22214764,22.2181217 C-0.211510964,22.923977 0.0091480461,23.8477355 0.715003321,24.2813942 C0.951203006,24.4265089 1.22299613,24.5033301 1.50021173,24.5033301 L27.8659609,24.5033301 C28.6943881,24.5033301 29.3659609,23.8317572 29.3659609,23.0033301 C29.3659609,22.7270812 29.2896743,22.4561976 29.1455124,22.2205478 L15.990702,0.717432189 C15.5583833,0.0107554212 14.635045,-0.211655735 13.9283683,0.220662978 Z M15.1376677,1.23928704 L28.2924781,22.7424026 C28.3405321,22.8209526 28.3659609,22.9112471 28.3659609,23.0033301 C28.3659609,23.2794725 28.1421033,23.5033301 27.8659609,23.5033301 L1.50021173,23.5033301 C1.40780658,23.5033301 1.31720883,23.477723 1.23847555,23.4293514 C1.0031905,23.2847986 0.929637494,22.976879 1.07419036,22.7415939 L14.2851292,1.23847831 C14.3263996,1.17130347 14.3829702,1.11484016 14.4502232,1.07369727 C14.6857821,0.92959105 14.9935614,1.0037281 15.1376677,1.23928704 Z" id="Path-4" fill="#000000"></path>
                            <path d="M14.9992498,8.09908415 C15.2753922,8.09908415 15.4992498,8.32294177 15.4992498,8.59908415 L15.4992498,15.7444517 C15.4992498,16.0205941 15.2753922,16.2444517 14.9992498,16.2444517 C14.7231075,16.2444517 14.4992498,16.0205941 14.4992498,15.7444517 L14.4992498,8.59908415 C14.4992498,8.32294177 14.7231075,8.09908415 14.9992498,8.09908415 Z" id="Path" fill="#FF0000"></path>
                            <circle id="Oval" fill="#FF0000" cx="14.681099" cy="18.5880321" r="1"></circle>
                        </g>
                        <g id="Group-3">
                            <polyline id="Path-2" fill="#FFFFFF" points="27.0733966 56.5931345 0.5 56.5931345 0.5 0.5 32.7782834 0.5 44.747897 12.8227977 44.747897 34.0687216"></polyline>
                            <path d="M32.7782834,0 C32.9134123,0 33.0427877,0.0546941639 33.1369392,0.151623692 L45.1065528,12.4744214 C45.1971941,12.5677373 45.247897,12.6927065 45.247897,12.8227977 L45.247897,34.0687216 C45.247897,34.344864 45.0240394,34.5687216 44.747897,34.5687216 C44.4717546,34.5687216 44.247897,34.344864 44.247897,34.0687216 L44.247,13.025 L32.567,1 L1,1 L1,56.093 L27.0733966,56.0931345 C27.3188565,56.0931345 27.523005,56.2700097 27.5653409,56.5032589 L27.5733966,56.5931345 C27.5733966,56.8692769 27.349539,57.0931345 27.0733966,57.0931345 L0.5,57.0931345 C0.223857625,57.0931345 0,56.8692769 0,56.5931345 L0,0.5 C0,0.223857625 0.223857625,0 0.5,0 L32.7782834,0 Z" id="Path-2" fill="#000000"></path>
                            <polygon id="Path-3" fill="#000000" points="32.2999398 0.5 32.2999398 13.2574114 44.747897 13.2574114"></polygon>
                        </g>
                    </g>
                </g>
                <g id="pb-btn-page" transform="translate(13.000000, 379.000000)" fill="#212121">
                    <path d="M1.0526147,18.9473606 L1.0526147,1.05263937 L18.947336,1.05263937 L18.947336,18.9473606 L1.0526147,18.9473606 Z M0,19.0053129 C0,19.5541449 0.447902776,20 0.994687091,20 L19.0053129,20 C19.5541449,20 20,19.5520972 20,19.0053129 L20,0.994687091 C20,0.44585508 19.5520972,0 19.0053129,0 L0.994687091,0 C0.44585508,0 0,0.447902776 0,0.994687091 L0,19.0053129 L0,19.0053129 Z M4.73684016,13.5789418 L11.55789,13.5789418 L11.55789,15.2631598 L4.73684016,15.2631598 L4.73684016,13.5789418 Z M4.21050814,16.3157745 L12.0841973,16.3157745 C12.3748716,16.3157745 12.6105047,16.0801414 12.6105047,15.7894672 L12.6105047,13.0526344 C12.6105047,12.7619602 12.3748716,12.5263271 12.0841973,12.5263271 L4.21050814,12.5263271 C3.91983391,12.5263271 3.68420079,12.7619602 3.68420079,13.0526344 L3.68420079,15.7894672 C3.68420079,16.0801414 3.91983391,16.3157745 4.21050814,16.3157745 Z M4.04511347,8.94734829 L10.1443626,8.94734829 C10.34368,8.94734829 10.5052753,8.78577764 10.5052753,8.58643561 L10.5052753,8.25559693 C10.5052753,8.05627958 10.3437046,7.89468425 10.1443626,7.89468425 L4.04511347,7.89468425 C3.84579612,7.89468425 3.68420079,8.05625491 3.68420079,8.25559693 L3.68420079,8.58643561 C3.68420079,8.78575297 3.84577144,8.94734829 4.04511347,8.94734829 Z M4.04511347,5.78945486 L14.6917292,5.78945486 C14.8910465,5.78945486 15.0526418,5.6278842 15.0526418,5.42854218 L15.0526418,5.0977035 C15.0526418,4.89838614 14.8910712,4.73679082 14.6917292,4.73679082 L4.04511347,4.73679082 C3.84579612,4.73679082 3.68420079,4.89836147 3.68420079,5.0977035 L3.68420079,5.42854218 C3.68420079,5.62785953 3.84577144,5.78945486 4.04511347,5.78945486 Z" id="Shape" transform="translate(10.000000, 10.000000) scale(-1, 1) rotate(-180.000000) translate(-10.000000, -10.000000) "></path>
                </g>
                <path d="M14.2079895,453.20801 L31.7919895,453.20801 L31.7919895,470.79201 L14.2079895,470.79201 L14.2079895,453.20801 Z M13,470.79201 C13,471.460068 13.5369751,472 14.2079895,472 L31.7920105,472 C32.4600677,472 33,471.463025 33,470.79201 L33,453.20799 C33,452.539932 32.4630249,452 31.7920105,452 L14.2079895,452 C13.5399323,452 13,452.536975 13,453.20799 L13,470.79201 L13,470.79201 Z M17.1275125,461.563769 L24.1744849,461.563769 C24.5080836,461.563769 24.7785111,461.834197 24.7785111,462.167796 C24.7785111,462.501394 24.5080836,462.771822 24.1744849,462.771822 L17.1275125,462.771822 C16.7939138,462.771822 16.5234862,462.501394 16.5234862,462.167796 C16.5234862,461.834197 16.7939138,461.563769 17.1275125,461.563769 Z M17.1275125,465.590611 L21.489924,465.590611 C21.8235226,465.590611 22.0939502,465.861038 22.0939502,466.194637 C22.0939502,466.528236 21.8235226,466.798663 21.489924,466.798663 L17.1275125,466.798663 C16.7939138,466.798663 16.5234862,466.528236 16.5234862,466.194637 C16.5234862,465.861038 16.7939138,465.590611 17.1275125,465.590611 Z M17.1275125,458.040283 L26.5234758,458.040283 C26.8570744,458.040283 27.127502,458.310711 27.127502,458.644309 C27.127502,458.977908 26.8570744,459.248336 26.5234758,459.248336 L17.1275125,459.248336 C16.7939138,459.248336 16.5234862,458.977908 16.5234862,458.644309 C16.5234862,458.310711 16.7939138,458.040283 17.1275125,458.040283 Z" id="Shape" fill="#212121" transform="translate(23.000000, 462.000000) scale(-1, 1) rotate(-180.000000) translate(-23.000000, -462.000000) "></path>
                <g id="pb-report" transform="translate(13.000000, 525.000000)" fill="#212121">
                    <path d="M1.20805369,1.20805369 L18.7919463,1.20805369 L18.7919463,18.7919463 L1.20805369,18.7919463 L1.20805369,1.20805369 Z M20,20 L20,0 L0,0 L0,20 L20,20 Z M1.00671141,12.3322148 L18.8590604,12.3322148 L18.8590604,13.5402685 L1.00671141,13.5402685 L1.00671141,12.3322148 Z M1.00671141,6.45973154 L18.8590604,6.45973154 L18.8590604,7.66778523 L1.00671141,7.66778523 L1.00671141,6.45973154 Z M5.87248322,18.942953 L5.87248322,1.1409396 L7.08053691,1.1409396 L7.08053691,18.942953 L5.87248322,18.942953 Z M12.5838926,18.942953 L12.5838926,1.1409396 L13.7919463,1.1409396 L13.7919463,18.942953 L12.5838926,18.942953 Z" id="Shape" transform="translate(10.000000, 10.000000) scale(-1, 1) rotate(-180.000000) translate(-10.000000, -10.000000) "></path>
                </g>
            </g>
        </g>
    </g>
</svg>